<svg version="1.0" xmlns="http://www.w3.org/2000/svg"
 width="2000.000000pt" height="2000.000000pt" viewBox="0 0 2000.000000 2000.000000"
 preserveAspectRatio="xMidYMid meet">
<metadata>
Created by potrace 1.14, written by Peter Selinger 2001-2017
</metadata>
<g transform="translate(0.000000,2000.000000) scale(0.100000,-0.100000)"
fill="#000000" stroke="none">
<path d="M7765 18873 c-199 -83 -344 -273 -406 -529 -24 -103 -40 -291 -32
-398 18 -258 -121 -628 -398 -1051 -130 -200 -171 -317 -148 -424 23 -108 130
-191 254 -199 52 -3 66 0 100 23 101 67 149 213 159 487 6 146 32 270 83 401
39 97 78 147 115 147 54 0 68 -122 44 -390 -20 -238 -59 -356 -155 -478 -88
-111 -189 -449 -233 -782 -6 -52 -12 -185 -12 -295 -1 -387 44 -556 176 -669
50 -43 133 -71 169 -57 29 10 91 77 113 119 83 161 107 524 60 912 -21 177
-24 575 -5 680 24 135 48 197 95 245 52 55 77 57 121 11 41 -44 79 -147 107
-289 31 -162 452 -2093 482 -2212 14 -55 34 -139 44 -186 l19 -85 -64 -115
c-373 -666 -613 -1314 -616 -1659 0 -115 11 -169 46 -221 35 -53 79 -71 160
-66 137 9 334 137 580 376 75 74 139 132 141 130 9 -9 100 -784 151 -1279 60
-586 85 -871 85 -963 0 -277 68 -516 184 -644 88 -97 253 -155 353 -123 105
34 183 117 223 240 42 126 37 378 -11 581 -23 101 -213 684 -349 1074 l-97
280 -118 596 -118 596 138 184 c671 896 1207 1991 1275 2603 24 208 -27 342
-138 367 -272 61 -875 -512 -1479 -1404 -51 -76 -95 -132 -98 -125 -8 23 -143
847 -184 1123 -50 332 -87 635 -101 820 -5 77 -16 196 -22 265 -17 175 -16
357 2 395 25 49 59 45 111 -13 59 -66 129 -186 129 -221 0 -15 9 -62 19 -104
35 -136 96 -231 183 -287 134 -87 234 -68 268 51 24 82 -41 253 -164 433 -76
110 -228 410 -328 647 -123 289 -213 582 -238 769 -44 335 -193 601 -387 693
-58 27 -82 32 -158 34 -67 2 -100 -1 -130 -14z"/>
<path d="M14790 12661 c-502 -163 -1434 -1300 -2016 -2461 -143 -285 -220
-466 -299 -705 -147 -442 -152 -690 -16 -782 214 -144 820 366 1430 1202 831
1139 1368 2442 1118 2714 -48 52 -121 63 -217 32z"/>
<path d="M3825 10399 c-132 -12 -288 -43 -377 -76 -95 -35 -158 -94 -158 -146
0 -123 293 -257 705 -322 55 -9 101 -17 102 -19 2 -1 7 -70 13 -152 85 -1209
504 -2383 1167 -3272 250 -335 594 -692 913 -948 224 -180 631 -459 867 -593
763 -434 1579 -705 2403 -796 201 -22 675 -31 881 -16 617 45 1194 196 1745
455 77 36 145 66 151 66 6 0 25 -28 43 -62 49 -91 179 -282 249 -365 106 -125
216 -202 289 -203 44 0 86 42 102 101 34 122 -15 405 -116 670 -196 518 -544
989 -730 989 -45 0 -91 -41 -105 -93 -31 -111 -1 -331 74 -559 l43 -127 -88
-41 c-299 -139 -636 -233 -1018 -285 -256 -35 -760 -30 -1072 10 -998 130
-2154 593 -3173 1271 -271 180 -505 380 -743 634 -741 794 -1227 1742 -1431
2790 -27 139 -71 436 -71 479 0 15 23 18 188 29 287 18 465 57 565 123 110 72
97 154 -36 240 -246 159 -889 260 -1382 218z"/>
</g>
</svg>
